<svg data-v-423bf9ae="" xmlns="http://www.w3.org/2000/svg" viewBox="0 0 305 90" class="iconLeft"><!----><!----><!----><g data-v-423bf9ae="" id="2b356d8e-4ca3-4f04-8882-a9194ed747b1" fill="white" transform="matrix(5.123826190521177,0,0,5.123826190521177,110.30742687308718,-25.683180722762984)"><path d="M7.68 13.96L8.63 11.29L8.63 11.29Q8.72 11.05 8.72 10.88L8.72 10.88L8.72 10.88Q8.72 10.72 8.64 10.63L8.64 10.63L8.64 10.63Q8.57 10.55 8.46 10.50L8.46 10.50L8.46 10.50Q8.35 10.45 8.22 10.43L8.22 10.43L8.22 10.43Q8.09 10.40 7.98 10.36L7.98 10.36L7.98 10.36Q7.87 10.32 7.79 10.25L7.79 10.25L7.79 10.25Q7.72 10.18 7.72 10.04L7.72 10.04L7.72 10.04Q7.72 9.71 7.85 9.42L7.85 9.42L7.85 9.42Q7.98 9.13 8.23 8.91L8.23 8.91L8.23 8.91Q8.49 8.69 8.87 8.56L8.87 8.56L8.87 8.56Q9.25 8.43 9.75 8.43L9.75 8.43L9.75 8.43Q10.25 8.43 10.64 8.56L10.64 8.56L10.64 8.56Q11.02 8.69 11.28 8.91L11.28 8.91L11.28 8.91Q11.53 9.13 11.66 9.42L11.66 9.42L11.66 9.42Q11.79 9.71 11.79 10.04L11.79 10.04L11.79 10.04Q11.79 10.20 11.71 10.27L11.71 10.27L11.71 10.27Q11.62 10.34 11.48 10.38L11.48 10.38L11.48 10.38Q11.34 10.42 11.17 10.46L11.17 10.46L11.17 10.46Q10.99 10.49 10.82 10.58L10.82 10.58L10.82 10.58Q10.65 10.67 10.50 10.84L10.50 10.84L10.50 10.84Q10.34 11.01 10.24 11.33L10.24 11.33L8.18 16.34L8.18 16.34Q7.80 17.29 7.53 17.92L7.53 17.92L7.53 17.92Q7.25 18.55 7 18.94L7 18.94L7 18.94Q6.75 19.32 6.48 19.48L6.48 19.48L6.48 19.48Q6.21 19.64 5.83 19.64L5.83 19.64L5.83 19.64Q5.50 19.64 5.24 19.44L5.24 19.44L5.24 19.44Q4.98 19.24 4.70 18.78L4.70 18.78L4.70 18.78Q4.42 18.31 4.06 17.55L4.06 17.55L4.06 17.55Q3.71 16.78 3.21 15.65L3.21 15.65L1.31 11.33L1.31 11.33Q1.18 11.03 1.03 10.87L1.03 10.87L1.03 10.87Q0.88 10.70 0.72 10.61L0.72 10.61L0.72 10.61Q0.57 10.52 0.43 10.48L0.43 10.48L0.43 10.48Q0.29 10.45 0.18 10.40L0.18 10.40L0.18 10.40Q0.07 10.36 0.00 10.28L0.00 10.28L0.00 10.28Q-0.06 10.20-0.06 10.04L-0.06 10.04L-0.06 10.04Q-0.06 9.19 0.82 8.81L0.82 8.81L0.82 8.81Q1.70 8.43 3.36 8.43L3.36 8.43L3.36 8.43Q4.17 8.43 4.80 8.52L4.80 8.52L4.80 8.52Q5.43 8.61 5.85 8.81L5.85 8.81L5.85 8.81Q6.28 9.00 6.50 9.31L6.50 9.31L6.50 9.31Q6.73 9.61 6.73 10.04L6.73 10.04L6.73 10.04Q6.73 10.17 6.66 10.25L6.66 10.25L6.66 10.25Q6.59 10.32 6.49 10.36L6.49 10.36L6.49 10.36Q6.38 10.40 6.26 10.43L6.26 10.43L6.26 10.43Q6.14 10.46 6.04 10.51L6.04 10.51L6.04 10.51Q5.93 10.55 5.87 10.63L5.87 10.63L5.87 10.63Q5.80 10.71 5.80 10.86L5.80 10.86L5.80 10.86Q5.80 10.94 5.82 11.05L5.82 11.05L5.82 11.05Q5.84 11.16 5.90 11.29L5.90 11.29L7.02 14.03L7.02 14.03Q7.09 14.18 7.16 14.30L7.16 14.30L7.16 14.30Q7.24 14.42 7.33 14.42L7.33 14.42L7.33 14.42Q7.41 14.42 7.50 14.32L7.50 14.32L7.50 14.32Q7.58 14.22 7.68 13.96L7.68 13.96ZM25.61 9.42L26.43 10.06L26.43 10.06Q26.29 10.74 26.02 11.30L26.02 11.30L26.02 11.30Q25.75 11.85 25.39 12.29L25.39 12.29L25.39 12.29Q25.03 12.73 24.61 13.04L24.61 13.04L24.61 13.04Q24.19 13.35 23.75 13.54L23.75 13.54L23.75 13.54Q24.38 14.92 24.38 16.02L24.38 16.02L24.38 16.02Q24.38 16.64 24.14 17.15L24.14 17.15L24.14 17.15Q23.90 17.66 23.47 18.07L23.47 18.07L23.47 18.07Q23.05 18.47 22.47 18.77L22.47 18.77L22.47 18.77Q21.88 19.07 21.20 19.26L21.20 19.26L21.20 19.26Q20.52 19.46 19.77 19.56L19.77 19.56L19.77 19.56Q19.01 19.65 18.24 19.65L18.24 19.65L18.24 19.65Q17.47 19.65 16.70 19.55L16.70 19.55L16.70 19.55Q15.94 19.46 15.25 19.25L15.25 19.25L15.25 19.25Q14.56 19.04 13.97 18.73L13.97 18.73L13.97 18.73Q13.38 18.41 12.95 17.98L12.95 17.98L12.95 17.98Q12.52 17.54 12.27 16.98L12.27 16.98L12.27 16.98Q12.02 16.43 12.02 15.74L12.02 15.74L12.02 15.74Q12.02 15.30 12.13 14.86L12.13 14.86L12.13 14.86Q12.23 14.42 12.42 14.01L12.42 14.01L12.42 14.01Q12.62 13.60 12.90 13.22L12.90 13.22L12.90 13.22Q13.18 12.84 13.54 12.53L13.54 12.53L13.54 12.53Q13.02 12.20 12.78 11.75L12.78 11.75L12.78 11.75Q12.53 11.30 12.53 10.81L12.53 10.81L12.53 10.81Q12.53 10.29 12.80 9.78L12.80 9.78L12.80 9.78Q13.07 9.26 13.60 8.85L13.60 8.85L13.60 8.85Q14.14 8.44 14.94 8.19L14.94 8.19L14.94 8.19Q15.74 7.94 16.80 7.94L16.80 7.94L16.80 7.94Q17.04 7.94 17.35 7.98L17.35 7.98L17.35 7.98Q17.66 8.02 18.00 8.10L18.00 8.10L18.00 8.10Q18.33 8.18 18.65 8.32L18.65 8.32L18.65 8.32Q18.96 8.45 19.21 8.63L19.21 8.63L19.21 8.63Q19.46 8.81 19.61 9.05L19.61 9.05L19.61 9.05Q19.76 9.28 19.76 9.58L19.76 9.58L19.76 9.58Q19.76 9.65 19.74 9.72L19.74 9.72L19.74 9.72Q19.72 9.80 19.67 9.87L19.67 9.87L19.67 9.87Q19.62 9.94 19.54 9.99L19.54 9.99L19.54 9.99Q19.46 10.04 19.35 10.04L19.35 10.04L19.35 10.04Q19.29 10.04 19.25 10.03L19.25 10.03L19.25 10.03Q19.21 10.03 19.16 9.99L19.16 9.99L19.16 9.99Q18.87 9.84 18.58 9.75L18.58 9.75L18.58 9.75Q18.29 9.66 18.03 9.66L18.03 9.66L18.03 9.66Q17.79 9.66 17.61 9.80L17.61 9.80L17.61 9.80Q17.42 9.95 17.28 10.17L17.28 10.17L17.28 10.17Q17.14 10.40 17.07 10.68L17.07 10.68L17.07 10.68Q16.99 10.96 16.99 11.24L16.99 11.24L16.99 11.24Q16.99 11.43 17.04 11.60L17.04 11.60L17.04 11.60Q17.08 11.78 17.16 11.92L17.16 11.92L17.16 11.92Q17.24 12.06 17.37 12.15L17.37 12.15L17.37 12.15Q17.50 12.25 17.68 12.28L17.68 12.28L17.68 12.28Q17.83 12.38 17.91 12.48L17.91 12.48L17.91 12.48Q17.99 12.58 17.99 12.72L17.99 12.72L17.99 12.72Q17.99 13.06 17.79 13.27L17.79 13.27L17.79 13.27Q17.60 13.48 17.29 13.48L17.29 13.48L17.29 13.48Q17.11 13.48 16.98 13.60L16.98 13.60L16.98 13.60Q16.84 13.73 16.75 13.94L16.75 13.94L16.75 13.94Q16.67 14.14 16.62 14.43L16.62 14.43L16.62 14.43Q16.57 14.71 16.57 15.03L16.57 15.03L16.57 15.03Q16.57 15.36 16.65 15.71L16.65 15.71L16.65 15.71Q16.73 16.05 16.87 16.38L16.87 16.38L16.87 16.38Q17.01 16.70 17.22 16.99L17.22 16.99L17.22 16.99Q17.43 17.28 17.69 17.50L17.69 17.50L17.69 17.50Q17.96 17.72 18.27 17.85L18.27 17.85L18.27 17.85Q18.58 17.97 18.93 17.97L18.93 17.97L18.93 17.97Q19.50 17.97 19.88 17.81L19.88 17.81L19.88 17.81Q20.25 17.65 20.48 17.37L20.48 17.37L20.48 17.37Q20.70 17.09 20.79 16.72L20.79 16.72L20.79 16.72Q20.88 16.35 20.88 15.93L20.88 15.93L20.88 15.93Q20.88 15.60 20.84 15.25L20.84 15.25L20.84 15.25Q20.79 14.91 20.72 14.57L20.72 14.57L20.72 14.57Q20.64 14.23 20.56 13.91L20.56 13.91L20.56 13.91Q20.47 13.59 20.40 13.31L20.40 13.31L20.40 13.31Q20.03 13.31 19.75 13.40L19.75 13.40L19.75 13.40Q19.47 13.49 19.32 13.72L19.32 13.72L19.32 13.72Q19.19 13.92 19.11 14.06L19.11 14.06L19.11 14.06Q19.02 14.20 18.98 14.28L18.98 14.28L18.98 14.28Q18.93 14.36 18.91 14.40L18.91 14.40L18.91 14.40Q18.89 14.44 18.89 14.44L18.89 14.44L18.06 13.80L18.06 13.80Q18.25 12.89 18.68 12.19L18.68 12.19L18.68 12.19Q19.11 11.49 19.65 11.02L19.65 11.02L19.65 11.02Q20.19 10.55 20.79 10.32L20.79 10.32L20.79 10.32Q21.39 10.08 21.92 10.08L21.92 10.08L21.92 10.08Q22.25 10.08 22.55 10.15L22.55 10.15L22.55 10.15Q22.85 10.22 23.13 10.31L23.13 10.31L23.13 10.31Q23.41 10.40 23.68 10.47L23.68 10.47L23.68 10.47Q23.95 10.54 24.23 10.54L24.23 10.54L24.23 10.54Q24.36 10.54 24.50 10.52L24.50 10.52L24.50 10.52Q24.64 10.51 24.76 10.46L24.76 10.46L24.76 10.46Q24.88 10.42 24.99 10.34L24.99 10.34L24.99 10.34Q25.09 10.27 25.17 10.15L25.17 10.15L25.17 10.15Q25.33 9.91 25.41 9.77L25.41 9.77L25.41 9.77Q25.50 9.63 25.54 9.56L25.54 9.56L25.54 9.56Q25.58 9.49 25.59 9.46L25.59 9.46L25.59 9.46Q25.60 9.43 25.61 9.42L25.61 9.42ZM30.48 10.96L29.39 14.94L31.53 14.94L30.48 10.96ZM27.63 19.32L27.63 19.32L27.63 19.32Q27.13 19.32 26.74 19.19L26.74 19.19L26.74 19.19Q26.36 19.06 26.10 18.84L26.10 18.84L26.10 18.84Q25.85 18.61 25.72 18.32L25.72 18.32L25.72 18.32Q25.59 18.03 25.59 17.71L25.59 17.71L25.59 17.71Q25.59 17.54 25.66 17.47L25.66 17.47L25.66 17.47Q25.74 17.40 25.86 17.36L25.86 17.36L25.86 17.36Q25.98 17.32 26.14 17.28L26.14 17.28L26.14 17.28Q26.29 17.25 26.45 17.16L26.45 17.16L26.45 17.16Q26.61 17.07 26.75 16.90L26.75 16.90L26.75 16.90Q26.89 16.73 27.00 16.42L27.00 16.42L28.68 11.29L28.68 11.29Q28.72 11.15 28.75 11.04L28.75 11.04L28.75 11.04Q28.77 10.93 28.77 10.85L28.77 10.85L28.77 10.85Q28.77 10.64 28.66 10.56L28.66 10.56L28.66 10.56Q28.54 10.49 28.40 10.45L28.40 10.45L28.40 10.45Q28.26 10.40 28.14 10.35L28.14 10.35L28.14 10.35Q28.03 10.29 28.03 10.11L28.03 10.11L28.03 10.11Q28.03 10.06 28.03 10.04L28.03 10.04L28.03 10.04Q28.10 9.56 28.41 9.25L28.41 9.25L28.41 9.25Q28.72 8.94 29.23 8.76L29.23 8.76L29.23 8.76Q29.74 8.58 30.43 8.50L30.43 8.50L30.43 8.50Q31.12 8.43 31.95 8.43L31.95 8.43L31.95 8.43Q32.66 8.43 33.30 8.48L33.30 8.48L33.30 8.48Q33.95 8.53 34.47 8.70L34.47 8.70L34.47 8.70Q34.99 8.87 35.33 9.19L35.33 9.19L35.33 9.19Q35.68 9.50 35.79 10.04L35.79 10.04L35.79 10.04Q35.81 10.10 35.81 10.13L35.81 10.13L35.81 10.13Q35.81 10.25 35.74 10.31L35.74 10.31L35.74 10.31Q35.68 10.36 35.58 10.40L35.58 10.40L35.58 10.40Q35.49 10.43 35.38 10.46L35.38 10.46L35.38 10.46Q35.27 10.48 35.17 10.53L35.17 10.53L35.17 10.53Q35.08 10.58 35.01 10.67L35.01 10.67L35.01 10.67Q34.95 10.76 34.95 10.92L34.95 10.92L34.95 10.92Q34.95 11.07 35.01 11.29L35.01 11.29L36.52 16.42L36.52 16.42Q36.61 16.73 36.74 16.90L36.74 16.90L36.74 16.90Q36.88 17.07 37.03 17.16L37.03 17.16L37.03 17.16Q37.19 17.25 37.34 17.28L37.34 17.28L37.34 17.28Q37.50 17.32 37.62 17.36L37.62 17.36L37.62 17.36Q37.74 17.40 37.82 17.47L37.82 17.47L37.82 17.47Q37.89 17.54 37.89 17.71L37.89 17.71L37.89 17.71Q37.89 18.56 37.01 18.94L37.01 18.94L37.01 18.94Q36.13 19.32 34.46 19.32L34.46 19.32L34.46 19.32Q33.65 19.32 33.03 19.23L33.03 19.23L33.03 19.23Q32.40 19.13 31.97 18.94L31.97 18.94L31.97 18.94Q31.54 18.74 31.32 18.44L31.32 18.44L31.32 18.44Q31.10 18.13 31.10 17.71L31.10 17.71L31.10 17.71Q31.10 17.56 31.16 17.49L31.16 17.49L31.16 17.49Q31.23 17.42 31.32 17.38L31.32 17.38L31.32 17.38Q31.42 17.34 31.53 17.32L31.53 17.32L31.53 17.32Q31.65 17.29 31.75 17.24L31.75 17.24L31.75 17.24Q31.84 17.19 31.91 17.09L31.91 17.09L31.91 17.09Q31.97 16.99 31.97 16.80L31.97 16.80L31.97 16.80Q31.97 16.65 31.92 16.45L31.92 16.45L31.81 15.98L29.04 15.98L28.88 16.45L28.88 16.45Q28.79 16.71 28.79 16.87L28.79 16.87L28.79 16.87Q28.79 17.03 28.85 17.11L28.85 17.11L28.85 17.11Q28.92 17.20 29.01 17.24L29.01 17.24L29.01 17.24Q29.11 17.29 29.22 17.32L29.22 17.32L29.22 17.32Q29.34 17.34 29.44 17.38L29.44 17.38L29.44 17.38Q29.53 17.42 29.60 17.49L29.60 17.49L29.60 17.49Q29.66 17.57 29.66 17.71L29.66 17.71L29.66 17.71Q29.66 18.03 29.53 18.32L29.53 18.32L29.53 18.32Q29.40 18.61 29.15 18.84L29.15 18.84L29.15 18.84Q28.89 19.06 28.51 19.19L28.51 19.19L28.51 19.19Q28.13 19.32 27.63 19.32Z"></path></g><!----><g data-v-423bf9ae="" id="710699d9-d4d0-44a0-8280-786254ef76ea" transform="matrix(2.8125,0,0,2.8125,0,0)" stroke="none" fill="white"><path d="M11.579 32H32L21.789 14.314z"></path><circle cx="8.683" cy="8.683" r="8.683"></circle></g><!----></svg>