<?xml version="1.0" encoding="UTF-8" standalone="no" ?>
<!DOCTYPE svg PUBLIC "-//W3C//DTD SVG 1.1//EN" "http://www.w3.org/Graphics/SVG/1.1/DTD/svg11.dtd">
<svg xmlns="http://www.w3.org/2000/svg" xmlns:xlink="http://www.w3.org/1999/xlink" version="1.1" width="125" height="36.88525" viewBox="103.29477557135772 206.70993172597446 125 36.88525" xml:space="preserve">
<desc>Created with Fabric.js 5.3.0</desc>
<defs>
</defs>
<g transform="matrix(0.4098360656 0 0 0.4098361111 165.7947755714 225.152556726)" id="360ox3PkG2GAW4XQfYdD-"  >
<g style=""   >
		<g transform="matrix(5.1238261905 0 0 5.1238261905 54.7245992668 0.0000015755)" id="FxsRdSc_ZkovgsqzxAy7L"  >
<path style="stroke: none; stroke-width: 1; stroke-dasharray: none; stroke-linecap: butt; stroke-dashoffset: 0; stroke-linejoin: miter; stroke-miterlimit: 4; fill: rgb(255,255,255); fill-rule: nonzero; opacity: 1;"  transform=" translate(-18.915, -13.795)" d="M 7.68 13.96 L 8.63 11.29 L 8.63 11.29 Q 8.72 11.05 8.72 10.88 L 8.72 10.88 L 8.72 10.88 Q 8.72 10.72 8.64 10.63 L 8.64 10.63 L 8.64 10.63 Q 8.57 10.55 8.46 10.5 L 8.46 10.5 L 8.46 10.5 Q 8.35 10.45 8.22 10.43 L 8.22 10.43 L 8.22 10.43 Q 8.09 10.4 7.98 10.36 L 7.98 10.36 L 7.98 10.36 Q 7.87 10.32 7.79 10.25 L 7.79 10.25 L 7.79 10.25 Q 7.72 10.18 7.72 10.04 L 7.72 10.04 L 7.72 10.04 Q 7.72 9.71 7.85 9.42 L 7.85 9.42 L 7.85 9.42 Q 7.98 9.13 8.23 8.91 L 8.23 8.91 L 8.23 8.91 Q 8.49 8.69 8.87 8.56 L 8.87 8.56 L 8.87 8.56 Q 9.25 8.43 9.75 8.43 L 9.75 8.43 L 9.75 8.43 Q 10.25 8.43 10.64 8.56 L 10.64 8.56 L 10.64 8.56 Q 11.02 8.69 11.28 8.91 L 11.28 8.91 L 11.28 8.91 Q 11.53 9.13 11.66 9.42 L 11.66 9.42 L 11.66 9.42 Q 11.79 9.71 11.79 10.04 L 11.79 10.04 L 11.79 10.04 Q 11.79 10.2 11.71 10.27 L 11.71 10.27 L 11.71 10.27 Q 11.62 10.34 11.48 10.38 L 11.48 10.38 L 11.48 10.38 Q 11.34 10.42 11.17 10.46 L 11.17 10.46 L 11.17 10.46 Q 10.99 10.49 10.82 10.58 L 10.82 10.58 L 10.82 10.58 Q 10.65 10.67 10.5 10.84 L 10.5 10.84 L 10.5 10.84 Q 10.34 11.01 10.24 11.33 L 10.24 11.33 L 8.18 16.34 L 8.18 16.34 Q 7.8 17.29 7.53 17.92 L 7.53 17.92 L 7.53 17.92 Q 7.25 18.55 7 18.94 L 7 18.94 L 7 18.94 Q 6.75 19.32 6.48 19.48 L 6.48 19.48 L 6.48 19.48 Q 6.21 19.64 5.83 19.64 L 5.83 19.64 L 5.83 19.64 Q 5.5 19.64 5.24 19.44 L 5.24 19.44 L 5.24 19.44 Q 4.98 19.24 4.7 18.78 L 4.7 18.78 L 4.7 18.78 Q 4.42 18.31 4.06 17.55 L 4.06 17.55 L 4.06 17.55 Q 3.71 16.78 3.21 15.65 L 3.21 15.65 L 1.31 11.33 L 1.31 11.33 Q 1.18 11.03 1.03 10.87 L 1.03 10.87 L 1.03 10.87 Q 0.88 10.7 0.72 10.61 L 0.72 10.61 L 0.72 10.61 Q 0.57 10.52 0.43 10.48 L 0.43 10.48 L 0.43 10.48 Q 0.29 10.45 0.18 10.4 L 0.18 10.4 L 0.18 10.4 Q 0.07 10.36 0 10.28 L 0 10.28 L 0 10.28 Q -0.06 10.2 -0.06 10.04 L -0.06 10.04 L -0.06 10.04 Q -0.06 9.19 0.82 8.81 L 0.82 8.81 L 0.82 8.81 Q 1.7 8.43 3.36 8.43 L 3.36 8.43 L 3.36 8.43 Q 4.17 8.43 4.8 8.52 L 4.8 8.52 L 4.8 8.52 Q 5.43 8.61 5.85 8.81 L 5.85 8.81 L 5.85 8.81 Q 6.28 9 6.5 9.31 L 6.5 9.31 L 6.5 9.31 Q 6.73 9.61 6.73 10.04 L 6.73 10.04 L 6.73 10.04 Q 6.73 10.17 6.66 10.25 L 6.66 10.25 L 6.66 10.25 Q 6.59 10.32 6.49 10.36 L 6.49 10.36 L 6.49 10.36 Q 6.38 10.4 6.26 10.43 L 6.26 10.43 L 6.26 10.43 Q 6.14 10.46 6.04 10.51 L 6.04 10.51 L 6.04 10.51 Q 5.93 10.55 5.87 10.63 L 5.87 10.63 L 5.87 10.63 Q 5.8 10.71 5.8 10.86 L 5.8 10.86 L 5.8 10.86 Q 5.8 10.94 5.82 11.05 L 5.82 11.05 L 5.82 11.05 Q 5.84 11.16 5.9 11.29 L 5.9 11.29 L 7.02 14.03 L 7.02 14.03 Q 7.09 14.18 7.16 14.3 L 7.16 14.3 L 7.16 14.3 Q 7.24 14.42 7.33 14.42 L 7.33 14.42 L 7.33 14.42 Q 7.41 14.42 7.5 14.32 L 7.5 14.32 L 7.5 14.32 Q 7.58 14.22 7.68 13.96 L 7.68 13.96 Z M 25.61 9.42 L 26.43 10.06 L 26.43 10.06 Q 26.29 10.74 26.02 11.3 L 26.02 11.3 L 26.02 11.3 Q 25.75 11.85 25.39 12.29 L 25.39 12.29 L 25.39 12.29 Q 25.03 12.73 24.61 13.04 L 24.61 13.04 L 24.61 13.04 Q 24.19 13.35 23.75 13.54 L 23.75 13.54 L 23.75 13.54 Q 24.38 14.92 24.38 16.02 L 24.38 16.02 L 24.38 16.02 Q 24.38 16.64 24.14 17.15 L 24.14 17.15 L 24.14 17.15 Q 23.9 17.66 23.47 18.07 L 23.47 18.07 L 23.47 18.07 Q 23.05 18.47 22.47 18.77 L 22.47 18.77 L 22.47 18.77 Q 21.88 19.07 21.2 19.26 L 21.2 19.26 L 21.2 19.26 Q 20.52 19.46 19.77 19.56 L 19.77 19.56 L 19.77 19.56 Q 19.01 19.65 18.24 19.65 L 18.24 19.65 L 18.24 19.65 Q 17.47 19.65 16.7 19.55 L 16.7 19.55 L 16.7 19.55 Q 15.94 19.46 15.25 19.25 L 15.25 19.25 L 15.25 19.25 Q 14.56 19.04 13.97 18.73 L 13.97 18.73 L 13.97 18.73 Q 13.38 18.41 12.95 17.98 L 12.95 17.98 L 12.95 17.98 Q 12.52 17.54 12.27 16.98 L 12.27 16.98 L 12.27 16.98 Q 12.02 16.43 12.02 15.74 L 12.02 15.74 L 12.02 15.74 Q 12.02 15.3 12.13 14.86 L 12.13 14.86 L 12.13 14.86 Q 12.23 14.42 12.42 14.01 L 12.42 14.01 L 12.42 14.01 Q 12.62 13.6 12.9 13.22 L 12.9 13.22 L 12.9 13.22 Q 13.18 12.84 13.54 12.53 L 13.54 12.53 L 13.54 12.53 Q 13.02 12.2 12.78 11.75 L 12.78 11.75 L 12.78 11.75 Q 12.53 11.3 12.53 10.81 L 12.53 10.81 L 12.53 10.81 Q 12.53 10.29 12.8 9.78 L 12.8 9.78 L 12.8 9.78 Q 13.07 9.26 13.6 8.85 L 13.6 8.85 L 13.6 8.85 Q 14.14 8.44 14.94 8.19 L 14.94 8.19 L 14.94 8.19 Q 15.74 7.94 16.8 7.94 L 16.8 7.94 L 16.8 7.94 Q 17.04 7.94 17.35 7.98 L 17.35 7.98 L 17.35 7.98 Q 17.66 8.02 18 8.1 L 18 8.1 L 18 8.1 Q 18.33 8.18 18.65 8.32 L 18.65 8.32 L 18.65 8.32 Q 18.96 8.45 19.21 8.63 L 19.21 8.63 L 19.21 8.63 Q 19.46 8.81 19.61 9.05 L 19.61 9.05 L 19.61 9.05 Q 19.76 9.28 19.76 9.58 L 19.76 9.58 L 19.76 9.58 Q 19.76 9.65 19.74 9.72 L 19.74 9.72 L 19.74 9.72 Q 19.72 9.8 19.67 9.87 L 19.67 9.87 L 19.67 9.87 Q 19.62 9.94 19.54 9.99 L 19.54 9.99 L 19.54 9.99 Q 19.46 10.04 19.35 10.04 L 19.35 10.04 L 19.35 10.04 Q 19.29 10.04 19.25 10.03 L 19.25 10.03 L 19.25 10.03 Q 19.21 10.03 19.16 9.99 L 19.16 9.99 L 19.16 9.99 Q 18.87 9.84 18.58 9.75 L 18.58 9.75 L 18.58 9.75 Q 18.29 9.66 18.03 9.66 L 18.03 9.66 L 18.03 9.66 Q 17.79 9.66 17.61 9.8 L 17.61 9.8 L 17.61 9.8 Q 17.42 9.95 17.28 10.17 L 17.28 10.17 L 17.28 10.17 Q 17.14 10.4 17.07 10.68 L 17.07 10.68 L 17.07 10.68 Q 16.99 10.96 16.99 11.24 L 16.99 11.24 L 16.99 11.24 Q 16.99 11.43 17.04 11.6 L 17.04 11.6 L 17.04 11.6 Q 17.08 11.78 17.16 11.92 L 17.16 11.92 L 17.16 11.92 Q 17.24 12.06 17.37 12.15 L 17.37 12.15 L 17.37 12.15 Q 17.5 12.25 17.68 12.28 L 17.68 12.28 L 17.68 12.28 Q 17.83 12.38 17.91 12.48 L 17.91 12.48 L 17.91 12.48 Q 17.99 12.58 17.99 12.72 L 17.99 12.72 L 17.99 12.72 Q 17.99 13.06 17.79 13.27 L 17.79 13.27 L 17.79 13.27 Q 17.6 13.48 17.29 13.48 L 17.29 13.48 L 17.29 13.48 Q 17.11 13.48 16.98 13.6 L 16.98 13.6 L 16.98 13.6 Q 16.84 13.73 16.75 13.94 L 16.75 13.94 L 16.75 13.94 Q 16.67 14.14 16.62 14.43 L 16.62 14.43 L 16.62 14.43 Q 16.57 14.71 16.57 15.03 L 16.57 15.03 L 16.57 15.03 Q 16.57 15.36 16.65 15.71 L 16.65 15.71 L 16.65 15.71 Q 16.73 16.05 16.87 16.38 L 16.87 16.38 L 16.87 16.38 Q 17.01 16.7 17.22 16.99 L 17.22 16.99 L 17.22 16.99 Q 17.43 17.28 17.69 17.5 L 17.69 17.5 L 17.69 17.5 Q 17.96 17.72 18.27 17.85 L 18.27 17.85 L 18.27 17.85 Q 18.58 17.97 18.93 17.97 L 18.93 17.97 L 18.93 17.97 Q 19.5 17.97 19.88 17.81 L 19.88 17.81 L 19.88 17.81 Q 20.25 17.65 20.48 17.37 L 20.48 17.37 L 20.48 17.37 Q 20.7 17.09 20.79 16.72 L 20.79 16.72 L 20.79 16.72 Q 20.88 16.35 20.88 15.93 L 20.88 15.93 L 20.88 15.93 Q 20.88 15.6 20.84 15.25 L 20.84 15.25 L 20.84 15.25 Q 20.79 14.91 20.72 14.57 L 20.72 14.57 L 20.72 14.57 Q 20.64 14.23 20.56 13.91 L 20.56 13.91 L 20.56 13.91 Q 20.47 13.59 20.4 13.31 L 20.4 13.31 L 20.4 13.31 Q 20.03 13.31 19.75 13.4 L 19.75 13.4 L 19.75 13.4 Q 19.47 13.49 19.32 13.72 L 19.32 13.72 L 19.32 13.72 Q 19.19 13.92 19.11 14.06 L 19.11 14.06 L 19.11 14.06 Q 19.02 14.2 18.98 14.28 L 18.98 14.28 L 18.98 14.28 Q 18.93 14.36 18.91 14.4 L 18.91 14.4 L 18.91 14.4 Q 18.89 14.44 18.89 14.44 L 18.89 14.44 L 18.06 13.8 L 18.06 13.8 Q 18.25 12.89 18.68 12.19 L 18.68 12.19 L 18.68 12.19 Q 19.11 11.49 19.65 11.02 L 19.65 11.02 L 19.65 11.02 Q 20.19 10.55 20.79 10.32 L 20.79 10.32 L 20.79 10.32 Q 21.39 10.08 21.92 10.08 L 21.92 10.08 L 21.92 10.08 Q 22.25 10.08 22.55 10.15 L 22.55 10.15 L 22.55 10.15 Q 22.85 10.22 23.13 10.31 L 23.13 10.31 L 23.13 10.31 Q 23.41 10.4 23.68 10.47 L 23.68 10.47 L 23.68 10.47 Q 23.95 10.54 24.23 10.54 L 24.23 10.54 L 24.23 10.54 Q 24.36 10.54 24.5 10.52 L 24.5 10.52 L 24.5 10.52 Q 24.64 10.51 24.76 10.46 L 24.76 10.46 L 24.76 10.46 Q 24.88 10.42 24.99 10.34 L 24.99 10.34 L 24.99 10.34 Q 25.09 10.27 25.17 10.15 L 25.17 10.15 L 25.17 10.15 Q 25.33 9.91 25.41 9.77 L 25.41 9.77 L 25.41 9.77 Q 25.5 9.63 25.54 9.56 L 25.54 9.56 L 25.54 9.56 Q 25.58 9.49 25.59 9.46 L 25.59 9.46 L 25.59 9.46 Q 25.6 9.43 25.61 9.42 L 25.61 9.42 Z M 30.48 10.96 L 29.39 14.94 L 31.53 14.94 L 30.48 10.96 Z M 27.63 19.32 L 27.63 19.32 L 27.63 19.32 Q 27.13 19.32 26.74 19.19 L 26.74 19.19 L 26.74 19.19 Q 26.36 19.06 26.1 18.84 L 26.1 18.84 L 26.1 18.84 Q 25.85 18.61 25.72 18.32 L 25.72 18.32 L 25.72 18.32 Q 25.59 18.03 25.59 17.71 L 25.59 17.71 L 25.59 17.71 Q 25.59 17.54 25.66 17.47 L 25.66 17.47 L 25.66 17.47 Q 25.74 17.4 25.86 17.36 L 25.86 17.36 L 25.86 17.36 Q 25.98 17.32 26.14 17.28 L 26.14 17.28 L 26.14 17.28 Q 26.29 17.25 26.45 17.16 L 26.45 17.16 L 26.45 17.16 Q 26.61 17.07 26.75 16.9 L 26.75 16.9 L 26.75 16.9 Q 26.89 16.73 27 16.42 L 27 16.42 L 28.68 11.29 L 28.68 11.29 Q 28.72 11.15 28.75 11.04 L 28.75 11.04 L 28.75 11.04 Q 28.77 10.93 28.77 10.85 L 28.77 10.85 L 28.77 10.85 Q 28.77 10.64 28.66 10.56 L 28.66 10.56 L 28.66 10.56 Q 28.54 10.49 28.4 10.45 L 28.4 10.45 L 28.4 10.45 Q 28.26 10.4 28.14 10.35 L 28.14 10.35 L 28.14 10.35 Q 28.03 10.29 28.03 10.11 L 28.03 10.11 L 28.03 10.11 Q 28.03 10.06 28.03 10.04 L 28.03 10.04 L 28.03 10.04 Q 28.1 9.56 28.41 9.25 L 28.41 9.25 L 28.41 9.25 Q 28.72 8.94 29.23 8.76 L 29.23 8.76 L 29.23 8.76 Q 29.74 8.58 30.43 8.5 L 30.43 8.5 L 30.43 8.5 Q 31.12 8.43 31.95 8.43 L 31.95 8.43 L 31.95 8.43 Q 32.66 8.43 33.3 8.48 L 33.3 8.48 L 33.3 8.48 Q 33.95 8.53 34.47 8.7 L 34.47 8.7 L 34.47 8.7 Q 34.99 8.87 35.33 9.19 L 35.33 9.19 L 35.33 9.19 Q 35.68 9.5 35.79 10.04 L 35.79 10.04 L 35.79 10.04 Q 35.81 10.1 35.81 10.13 L 35.81 10.13 L 35.81 10.13 Q 35.81 10.25 35.74 10.31 L 35.74 10.31 L 35.74 10.31 Q 35.68 10.36 35.58 10.4 L 35.58 10.4 L 35.58 10.4 Q 35.49 10.43 35.38 10.46 L 35.38 10.46 L 35.38 10.46 Q 35.27 10.48 35.17 10.53 L 35.17 10.53 L 35.17 10.53 Q 35.08 10.58 35.01 10.67 L 35.01 10.67 L 35.01 10.67 Q 34.95 10.76 34.95 10.92 L 34.95 10.92 L 34.95 10.92 Q 34.95 11.07 35.01 11.29 L 35.01 11.29 L 36.52 16.42 L 36.52 16.42 Q 36.61 16.73 36.74 16.9 L 36.74 16.9 L 36.74 16.9 Q 36.88 17.07 37.03 17.16 L 37.03 17.16 L 37.03 17.16 Q 37.19 17.25 37.34 17.28 L 37.34 17.28 L 37.34 17.28 Q 37.5 17.32 37.62 17.36 L 37.62 17.36 L 37.62 17.36 Q 37.74 17.4 37.82 17.47 L 37.82 17.47 L 37.82 17.47 Q 37.89 17.54 37.89 17.71 L 37.89 17.71 L 37.89 17.71 Q 37.89 18.56 37.01 18.94 L 37.01 18.94 L 37.01 18.94 Q 36.13 19.32 34.46 19.32 L 34.46 19.32 L 34.46 19.32 Q 33.65 19.32 33.03 19.23 L 33.03 19.23 L 33.03 19.23 Q 32.4 19.13 31.97 18.94 L 31.97 18.94 L 31.97 18.94 Q 31.54 18.74 31.32 18.44 L 31.32 18.44 L 31.32 18.44 Q 31.1 18.13 31.1 17.71 L 31.1 17.71 L 31.1 17.71 Q 31.1 17.56 31.16 17.49 L 31.16 17.49 L 31.16 17.49 Q 31.23 17.42 31.32 17.38 L 31.32 17.38 L 31.32 17.38 Q 31.42 17.34 31.53 17.32 L 31.53 17.32 L 31.53 17.32 Q 31.65 17.29 31.75 17.24 L 31.75 17.24 L 31.75 17.24 Q 31.84 17.19 31.91 17.09 L 31.91 17.09 L 31.91 17.09 Q 31.97 16.99 31.97 16.8 L 31.97 16.8 L 31.97 16.8 Q 31.97 16.65 31.92 16.45 L 31.92 16.45 L 31.81 15.98 L 29.04 15.98 L 28.88 16.45 L 28.88 16.45 Q 28.79 16.71 28.79 16.87 L 28.79 16.87 L 28.79 16.87 Q 28.79 17.03 28.85 17.11 L 28.85 17.11 L 28.85 17.11 Q 28.92 17.2 29.01 17.24 L 29.01 17.24 L 29.01 17.24 Q 29.11 17.29 29.22 17.32 L 29.22 17.32 L 29.22 17.32 Q 29.34 17.34 29.44 17.38 L 29.44 17.38 L 29.44 17.38 Q 29.53 17.42 29.6 17.49 L 29.6 17.49 L 29.6 17.49 Q 29.66 17.57 29.66 17.71 L 29.66 17.71 L 29.66 17.71 Q 29.66 18.03 29.53 18.32 L 29.53 18.32 L 29.53 18.32 Q 29.4 18.61 29.15 18.84 L 29.15 18.84 L 29.15 18.84 Q 28.89 19.06 28.51 19.19 L 28.51 19.19 L 28.51 19.19 Q 28.13 19.32 27.63 19.32 Z" stroke-linecap="round" />
</g>
		<g transform="matrix(2.8125 0 0 2.8125 -91.21703125 20.1290625)" id="UETy-5BIZXc9P-VL198Gq"  >
<path style="stroke: none; stroke-width: 1; stroke-dasharray: none; stroke-linecap: butt; stroke-dashoffset: 0; stroke-linejoin: miter; stroke-miterlimit: 4; fill: rgb(255,255,255); fill-rule: nonzero; opacity: 1;"  transform=" translate(-21.7895, -23.157)" d="M 11.579 32 L 32 32 L 21.789 14.314 z" stroke-linecap="round" />
</g>
		<g transform="matrix(2.8125 0 0 2.8125 -128.0790625 -20.5790625)" id="4eyCPR6y3RNqplx4ssw7v"  >
<path style="stroke: none; stroke-width: 1; stroke-dasharray: none; stroke-linecap: butt; stroke-dashoffset: 0; stroke-linejoin: miter; stroke-miterlimit: 4; fill: rgb(255,255,255); fill-rule: nonzero; opacity: 1;"  transform=" translate(-8.683, -8.683)" d="M 0 8.683 C 0 3.88751 3.88751 0 8.683 0 C 13.47849 0 17.366 3.88751 17.366 8.683 C 17.366 13.47849 13.47849 17.366 8.683 17.366 C 3.88751 17.366 0 13.47849 0 8.683 z" stroke-linecap="round" />
</g>
</g>
</g>
</svg>